# xmcd
#
# Track frame offsets:
#	225
#	17927
#	32923
#	49426
#	64676
#	84704
#	99311
#	114804
#	131527
#	148542
#	163246
#	178788
#	195588
#	214742
#	228372
#	240546
#	258655
#	276591
#	295133
#	308416
#
# Disc length: 4336 seconds
#
# Revision: 0
# Processed by: cddbd v1.5.2PL0 Copyright (c) Steve Scherf et al.
# Submitted via: EZCDAudioConverter 1.1.0.1
#
DISCID=2710ed14
DTITLE=Country Forever
DYEAR=2019
DGENRE=Country
TTITLE0=Lady Antebellum - Need You Now
TTITLE1=Carrie Underwood - Before He Cheeats
TTITLE2=Kacy Musgraves - Butterflies
TTITLE3=The Shires - Accidentally On Purpose
TTITLE4=Lonestar - Amazed
TTITLE5=Florida Georgia Line - H.O.L.Y.
TTITLE6=Dustin Lynch - Small Town Boy
TTITLE7=Brett Young - In Case You Did't Know
TTITLE8=Luke Bryan - Play It Again
TTITLE9=Jimmie Allen - Best Shot
TTITLE10=Thomas Rhett - Marry Me
TTITLE11=The Band Perry - If I Die Young
TTITLE12=Dierks Bentley - Drunk On A Plane
TTITLE13=Jordan Davis - Single You Up
TTITLE14=Sam Hunt - Body Like A Back Road
TTITLE15=Lee Ann Womack - I Hope You Dance
TTITLE16=Steve Earle - Copperhead Road
TTITLE17=Sugarland - Stuck Like Glue
TTITLE18=The Wondering Hearts - Wish I Could
TTITLE19=Rascal Flatts - Bless The Broken Road
EXTD=
EXTT0=
EXTT1=
EXTT2=
EXTT3=
EXTT4=
EXTT5=
EXTT6=
EXTT7=
EXTT8=
EXTT9=
EXTT10=
EXTT11=
EXTT12=
EXTT13=
EXTT14=
EXTT15=
EXTT16=
EXTT17=
EXTT18=
EXTT19=
PLAYORDER=
